PathFileType	4	(X/Y/Z)	12_2_33_p1_0-589.trc
DataRate	CameraRate	NumFrames	NumMarkers	Units	OrigDataRate	OrigDataStartFrame	OrigNumFrames
59.0	59.0	7	27	m	59.0	442	590
Frame#	Time	RHip			RKnee			RAnkle			RBigToe			RSmallToe			RHeel			LHip			LKnee			LAnkle			LBigToe			LSmallToe			LHeel			Neck			Head			Nose			RShoulder			RElbow			RWrist			RThumb			RIndex			RPinky			LShoulder			LElbow			LWrist			LThumb			LIndex			LPinky			
		X1	Y1	Z1	X2	Y2	Z2	X3	Y3	Z3	X4	Y4	Z4	X5	Y5	Z5	X6	Y6	Z6	X7	Y7	Z7	X8	Y8	Z8	X9	Y9	Z9	X10	Y10	Z10	X11	Y11	Z11	X12	Y12	Z12	X13	Y13	Z13	X14	Y14	Z14	X15	Y15	Z15	X16	Y16	Z16	X17	Y17	Z17	X18	Y18	Z18	X19	Y19	Z19	X20	Y20	Z20	X21	Y21	Z21	X22	Y22	Z22	X23	Y23	Z23	X24	Y24	Z24	X25	Y25	Z25	X26	Y26	Z26	X27	Y27	Z27	
442	7.491525423728813	0.33733130476735795	0.5770172477985156	1.2498409891462892	0.4973721244163082	0.46957241160881574	1.4658400843423438	0.4916142413656877	0.6036097789561381	1.9610009055970608	0.4943714378843279	0.3634136057975939	1.90366435873958	0.5412375674447477	0.39276043135036265	1.9117325507795442	0.46588305558188314	0.6644818333192545	2.0217666963439966	0.14675698551669372	0.602392374405788	1.2415815947461142	0.2168766003565013	0.39354007635982763	1.5286846131774874	0.3240009005779537	0.5970724124047266	1.9559854279392157	0.3284604495578763	0.38581328678659654	1.9550967785195237	0.2734534289845184	0.4191807289905249	1.9482807384125156	0.3440900582922349	0.6390248648420863	1.9978471086403096	0.5506694756192545	0.28654334183157976	0.9581173349426279	0.8345605616710435	0.2323507403631954	0.8809125411198763	0.6849008216577844	0.177670476414899	0.973509599002531	0.5981230554429562	0.3990444923864909	1.0093928104723737	0.43364508729165335	0.7055201181282583	0.9286689292205506	0.1643779126448161	0.8822019314184475	0.9699846586947302	0.04042685100965169	1.0173210061469709	0.9856029571949483	0.03829152414055453	1.0199835751582649	0.9646769531245091	0.05430148895501645	0.9633826859597608	0.9300239567767367	0.43835985201065275	0.2946073735782349	0.8933434809372364	0.24489302222159628	0.4373277955923047	0.7956565804911845	0.16027185191335536	0.7575554630280921	0.9801636529533777	0.09163174587266641	0.7804486867689039	1.0395731613828048	0.06945480962301927	0.7610727467995104	1.017919106975927	0.05177953441709167	0.8251369533478067	0.9927828508073259
443	7.508474576271187	0.3373322189116713	0.577298102895389	1.2498034424929072	0.4980762272124756	0.46776698636976555	1.4691496449703334	0.49162065268886646	0.6037650994759249	1.9610197723082667	0.4943926545369261	0.3634945119278255	1.9037392494060015	0.5423754514941742	0.4187935746191174	1.9299571241428517	0.4703320887653539	0.6666005752470684	2.0221696297211036	0.14567966140060273	0.6012668430585043	1.2368032258138226	0.21770052710284146	0.3917482984705183	1.5321183425197509	0.32416514212375935	0.5971359874408685	1.9563998953066772	0.3298999198402354	0.386416700514135	1.9609566396988014	0.27347987204108576	0.41868054088183065	1.9480817305192506	0.3397085147097664	0.6548017426601954	2.008462838548377	0.546232619769615	0.28410175164989426	0.9575345042985549	0.8392934618172133	0.2409379175558925	0.8834114946416892	0.684959902802743	0.17751242028806172	0.9702780799357171	0.5979262744901817	0.39867412102286387	1.0097623340990076	0.43364508729165335	0.7055201181282583	0.9286689292205506	0.1643779126448161	0.8822019314184475	0.9699846586947302	0.04042685100965169	1.0173210061469709	0.9856029571949483	0.03829152414055453	1.0199835751582649	0.9646769531245091	0.05430148895501645	0.9633826859597608	0.9300239567767367	0.43837135229424756	0.2945094722149198	0.893448568223116	0.2493850590008924	0.4508202425560413	0.7972228511506261	0.15951335790768292	0.7566972582321276	0.9765366496256336	0.09563835637603461	0.8496928198009833	1.0679455809885239	0.07740303738898287	0.7831225837819483	1.0245524850281849	0.05700136362455798	0.8332946658646354	0.9940785287030288
444	7.52542372881356	0.33326713476032993	0.5920525601954496	1.2565485546487156	0.4971543865925569	0.46963998510335664	1.4658800007127757	0.4826782757151307	0.6182427344524826	1.9772067526575245	0.4945721559874383	0.36339835741701193	1.9037540188306834	0.5504098270666383	0.40674901503206806	1.920332607264813	0.4649245516522703	0.6646480561268293	2.02230874470977	0.13852292796897958	0.5851704211407208	1.2311232360105	0.21691205618031864	0.393460959015677	1.528598138622239	0.32402026140364343	0.5967788559583518	1.9558377999646508	0.33555005605184623	0.38566200735720907	1.9643274954917296	0.27358665616679867	0.41893233206708197	1.9482425731557003	0.3404409622307952	0.6535031100301704	2.0030681293709733	0.546004919231901	0.2842682967375626	0.9576133337941763	0.8319225990976957	0.2319294184995932	0.884788977794956	0.6848097221272645	0.17776849512139475	0.9736917347961702	0.5897025841705791	0.40947078038815754	1.011724990063807	0.43364508729165335	0.7055201181282583	0.9286689292205506	0.1643779126448161	0.8822019314184475	0.9699846586947302	0.04042685100965169	1.0173210061469709	0.9856029571949483	0.03829152414055453	1.0199835751582649	0.9646769531245091	0.05430148895501645	0.9633826859597608	0.9300239567767367	0.4343536942656929	0.2931556870645793	0.8939885467320895	0.24759458438201448	0.4503453843845169	0.8016666900289706	0.16241085673163386	0.7901120446005723	0.9833409601406117	0.10005966341054559	0.8031410070246678	1.0458256191607702	0.0859192298147042	0.8052520440962875	1.031891812104026	0.053128709276687926	0.8580395595303356	0.991996888592342
445	7.5423728813559325	0.3297758408238887	0.5802132616150512	1.2517621877420049	0.4972273848883901	0.46935531772098504	1.465778537674374	0.48271547303279555	0.6182242675673644	1.9772015980964632	0.4945720899174333	0.36362280195137764	1.9037584257654196	0.5504321076755414	0.4069228486701921	1.920252564789478	0.46499247405020383	0.6630925732754244	2.021829495779357	0.14149647691605022	0.5983068551929746	1.2358355340845604	0.22000499795994646	0.4048651014731034	1.534269141664326	0.3241285622341645	0.5972362682688295	1.9561522670301361	0.3350139238345032	0.38773817196288446	1.9612086653582637	0.2737457381556808	0.4189042792809082	1.9484398102746985	0.3405158982404555	0.6547689957438657	2.003175506454017	0.5458857565115093	0.283690429303786	0.9578240660182592	0.8320325873063091	0.23168841735856388	0.8889909840193461	0.6832438385284162	0.1878724434060038	0.9817739178201538	0.5877336219464221	0.42541570891697567	1.0212018814958723	0.43364508729165335	0.7055201181282583	0.9286689292205506	0.1643779126448161	0.8822019314184475	0.9699846586947302	0.04042685100965169	1.0173210061469709	0.9856029571949483	0.03829152414055453	1.0199835751582649	0.9646769531245091	0.05430148895501645	0.9633826859597608	0.9300239567767367	0.4372389461791762	0.30384432375399756	0.8932082272827789	0.2508406875944156	0.4517800576438428	0.8009006961443745	0.1610366066702745	0.7914447483048042	0.9709498436596843	0.11465627595369902	0.839381607993892	1.0623335600692234	0.0861288192004441	0.8044801655189358	1.0271454457391702	0.020475898030424912	0.7232030694511333	0.9339013050224075
446	7.559322033898305	0.3308094506356358	0.5816520811431007	1.256419247793645	0.49717012976543296	0.46937753030524443	1.4657430989026126	0.4873805587847368	0.6196655819955712	1.977379195439975	0.49450310332293324	0.3636334898165937	1.9037852015852361	0.54773439006877	0.42195119670531	1.931368105162509	0.46510068065731075	0.6632618952463366	2.021868952420816	0.141148191786734	0.5980421594897561	1.240316272402927	0.21998825701459596	0.4049554117771893	1.5343810896579364	0.32408332150048064	0.5973278399932791	1.95627008365065	0.3345740097572469	0.38827948129946155	1.9615304920230594	0.27339083855170443	0.41971761285866094	1.948527766394825	0.3404071969430346	0.6546383578272612	2.003183318955892	0.538586424217792	0.28761764552718355	0.9567386599021431	0.8318659762759713	0.2313789189407875	0.8890418586561419	0.6831708228291374	0.18791209341557522	0.9852631649040351	0.5920715017781636	0.4322342937143809	1.0131813601423818	0.43364508729165335	0.7055201181282583	0.9286689292205506	0.1643779126448161	0.8822019314184475	0.9699846586947302	0.04042685100965169	1.0173210061469709	0.9856029571949483	0.03829152414055453	1.0199835751582649	0.9646769531245091	0.05430148895501645	0.9633826859597608	0.9300239567767367	0.43377918256611947	0.29436492851106055	0.8903486707900081	0.24649357981838413	0.44898386431167836	0.7972303893955883	0.15928826944548707	0.7932004469741618	0.9661810087699895	0.09659488519265988	0.8277355280334779	1.0551891889134746	0.086056220319625	0.8063366488747368	1.0329936420197388	0.026526527075400135	0.7453117465460051	0.9278181283155722
447	7.576271186440678	0.3298071455388335	0.5801943935785849	1.2476873672024393	0.4979848669296904	0.4675220909249287	1.4693464464213386	0.48324572486568657	0.6175562304342723	1.972298142921434	0.4945180732062701	0.36375004084828066	1.9037944364307586	0.5477722110061284	0.422193302692792	1.931438945130637	0.46060367107779376	0.6494054952012318	2.013312347184435	0.1413923122763645	0.5984198350685523	1.2363372081803614	0.22076480241140106	0.4034444960713078	1.537693966867541	0.3241678757058488	0.5968538510932535	1.9561736304550421	0.3349003078795571	0.3877162861182513	1.9611679201500383	0.27065956247011547	0.40634785958026304	1.9401217835611517	0.3405211559433287	0.6542033766760433	2.0033401121497594	0.539441470752387	0.2885821697888704	0.9601334389333441	0.8318782924141597	0.23130535255829424	0.8889722020909865	0.6831790292585413	0.18799967668030954	0.9853208742966476	0.591408146891908	0.44864483835780056	1.0297325534276536	0.43364508729165335	0.7055201181282583	0.9286689292205506	0.1643779126448161	0.8822019314184475	0.9699846586947302	0.04042685100965169	1.0173210061469709	0.9856029571949483	0.03829152414055453	1.0199835751582649	0.9646769531245091	0.05430148895501645	0.9633826859597608	0.9300239567767367	0.43368814631299213	0.29416393130674623	0.8902285402430737	0.24129262600276313	0.4627077653724995	0.7936570430298868	0.148749142301355	0.7825108085109455	0.9612639606759276	0.08268691963538169	0.8309484279148179	1.0486645823018526	0.08067328398711791	0.8309829427702612	1.0338037058347807	0.017790532698338937	0.7911326806406549	0.9421190516206303
448	7.593220338983051	0.3328682942209586	0.5921129298128037	1.2561325046491574	0.49713820540926335	0.46925365617550135	1.465851653627352	0.4832793585493875	0.6176095734314919	1.9723124162741554	0.4945074671959489	0.36379301753209625	1.9038473753775829	0.5477610354651034	0.4223458133183786	1.9315558579129313	0.46527128146588925	0.6624364922702038	2.021467777969609	0.14128779014160825	0.5985032070413927	1.2362299089599498	0.2200122446975963	0.4050770145374433	1.5344683395481744	0.32422045256061693	0.5972665618378988	1.9563957289936462	0.33564265667184323	0.3859872409158828	1.9646442476473234	0.27062517759824695	0.4066845917606312	1.940290317179463	0.3448764784793281	0.6394884011607728	1.992826344693774	0.5386143485641862	0.2877671218961648	0.9573819271523392	0.8318354780951912	0.23108966087418276	0.8933150689255249	0.6832179552916969	0.1880990636711581	0.9854353060406086	0.5908674987261323	0.4483506908319356	1.0283691163383935	0.43364508729165335	0.7055201181282583	0.9286689292205506	0.1643779126448161	0.8822019314184475	0.9699846586947302	0.04042685100965169	1.0173210061469709	0.9856029571949483	0.03829152414055453	1.0199835751582649	0.9646769531245091	0.05430148895501645	0.9633826859597608	0.9300239567767367	0.4299713637681693	0.2845603608317737	0.8875490291814299	0.23066764983852284	0.44652440727304105	0.7904977644976915	0.12347838275232563	0.7611571716140215	0.9411946792731184	0.07369366995970754	0.8067401937888147	1.0414182655078188	0.0637356094611419	0.7861567768921328	1.020697234867648	0.0018362606433357015	0.8163923639644204	0.9566316138499033
